<svg width="20" height="21" viewBox="0 0 20 21" fill="none" xmlns="http://www.w3.org/2000/svg">
<path d="M18.3333 6.44946V14.7828C18.3333 15.3353 18.1138 15.8652 17.7231 16.2559C17.3324 16.6466 16.8025 16.8661 16.25 16.8661H3.75C3.19746 16.8661 2.66756 16.6466 2.27686 16.2559C1.88616 15.8652 1.66666 15.3353 1.66666 14.7828V6.44946" stroke="white" stroke-width="1.4" stroke-linecap="round" stroke-linejoin="round"/>
<path d="M18.3333 6.44954C18.3333 5.89701 18.1138 5.36711 17.7231 4.97641C17.3324 4.5857 16.8025 4.36621 16.25 4.36621H3.75C3.19746 4.36621 2.66756 4.5857 2.27686 4.97641C1.88616 5.36711 1.66666 5.89701 1.66666 6.44954L8.89583 10.9634C9.22694 11.1704 9.60954 11.2801 10 11.2801C10.3905 11.2801 10.7731 11.1704 11.1042 10.9634L18.3333 6.44954Z" stroke="white" stroke-width="1.4" stroke-linecap="round" stroke-linejoin="round"/>
</svg>
