<svg width="63" height="63" viewBox="0 0 63 63" fill="none" xmlns="http://www.w3.org/2000/svg">
<circle cx="31.5" cy="31.5" r="31.5" fill="white"/>
<path d="M46.1667 38.3749V42.6249C46.1667 44.5799 44.58 46.1666 42.625 46.1666H32.51C31.2492 46.1666 30.6258 44.6508 31.5042 43.7583L39.82 35.2583C40.0892 34.9891 40.4575 34.8333 40.8258 34.8333H42.625C44.58 34.8333 46.1667 36.4199 46.1667 38.3749Z" fill="url(#paint0_linear_18_34)"/>
<path d="M41.0242 30.9942L37.185 34.8333L33.7 38.3042C32.8075 39.1967 31.2775 38.5733 31.2775 37.3125C31.2775 32.765 31.2775 25.285 31.2775 25.285C31.2775 24.9025 31.4334 24.5483 31.6884 24.2792L32.9917 22.9758C34.38 21.5875 36.6184 21.5875 38.0067 22.9758L41.01 25.9792C42.4125 27.3675 42.4125 29.6058 41.0242 30.9942Z" fill="url(#paint1_linear_18_34)"/>
<path d="M25.625 17.8333H21.375C19.25 17.8333 17.8333 19.2499 17.8333 21.3749V40.4999C17.8333 40.8824 17.8758 41.2649 17.9466 41.6333C17.9891 41.8174 18.0316 42.0016 18.0883 42.1858C18.1591 42.3983 18.23 42.6108 18.315 42.8091C18.3291 42.8233 18.3291 42.8374 18.3291 42.8374C18.3433 42.8374 18.3433 42.8374 18.3291 42.8516C18.5275 43.2483 18.7541 43.6308 19.0233 43.9849C19.1791 44.1691 19.335 44.3391 19.4908 44.5091C19.6466 44.6791 19.8166 44.8208 20.0008 44.9624L20.015 44.9766C20.3691 45.2458 20.7516 45.4724 21.1483 45.6708C21.1625 45.6566 21.1625 45.6566 21.1625 45.6708C21.375 45.7699 21.5875 45.8408 21.8141 45.9116C21.9983 45.9683 22.1825 46.0108 22.3666 46.0533C22.735 46.1241 23.1175 46.1666 23.5 46.1666C24.0808 46.1666 24.6758 46.0816 25.2283 45.8974C25.3841 45.8408 25.54 45.7841 25.6958 45.7133C26.1916 45.5149 26.6733 45.2316 27.0983 44.8633C27.2258 44.7641 27.3675 44.6366 27.495 44.5091L27.5516 44.4524C28.5433 43.4324 29.1666 42.0299 29.1666 40.4999V21.3749C29.1666 19.2499 27.75 17.8333 25.625 17.8333ZM23.5 42.6249C22.3241 42.6249 21.375 41.6758 21.375 40.4999C21.375 39.3241 22.3241 38.3749 23.5 38.3749C24.6758 38.3749 25.625 39.3241 25.625 40.4999C25.625 41.6758 24.6758 42.6249 23.5 42.6249Z" fill="url(#paint2_linear_18_34)"/>
<defs>
<linearGradient id="paint0_linear_18_34" x1="31.0939" y1="40.4999" x2="46.1667" y2="40.4999" gradientUnits="userSpaceOnUse">
<stop stop-color="#0038FF"/>
<stop offset="1" stop-color="#1DADFF"/>
</linearGradient>
<linearGradient id="paint1_linear_18_34" x1="31.2775" y1="30.3294" x2="42.0637" y2="30.3294" gradientUnits="userSpaceOnUse">
<stop stop-color="#0038FF"/>
<stop offset="1" stop-color="#1DADFF"/>
</linearGradient>
<linearGradient id="paint2_linear_18_34" x1="17.8333" y1="31.9999" x2="29.1666" y2="31.9999" gradientUnits="userSpaceOnUse">
<stop stop-color="#0038FF"/>
<stop offset="1" stop-color="#1DADFF"/>
</linearGradient>
</defs>
</svg>
