<svg width="63" height="63" viewBox="0 0 63 63" fill="none" xmlns="http://www.w3.org/2000/svg">
<circle cx="31.5" cy="31.5" r="31.5" fill="white"/>
<path d="M29.5733 31.8133C29.04 31.8133 28.56 31.52 28.3333 31.04L26.4 27.1867L25.84 28.2267C25.5333 28.8 24.92 29.16 24.2667 29.16H23.2933C22.7467 29.16 22.2933 28.7067 22.2933 28.16C22.2933 27.6133 22.7467 27.16 23.2933 27.16H24.1467L25.2 25.2133C25.4533 24.76 25.96 24.4533 26.44 24.48C26.96 24.48 27.4267 24.7867 27.6667 25.24L29.5733 29.0533L30.0267 28.1333C30.3333 27.52 30.9333 27.1467 31.6267 27.1467H32.7067C33.2533 27.1467 33.7067 27.6 33.7067 28.1467C33.7067 28.6933 33.2533 29.1467 32.7067 29.1467H31.76L30.8133 31.0267C30.5733 31.52 30.1067 31.8133 29.5733 31.8133Z" fill="url(#paint0_linear_1_177)"/>
<path d="M15.6667 40.8667C15.12 40.8667 14.6667 40.4133 14.6667 39.8667V32.2667C14.6 28.6533 15.9467 25.24 18.4533 22.68C20.96 20.1333 24.32 18.7333 27.9333 18.7333C35.32 18.7333 41.3333 24.7467 41.3333 32.1333V39.7333C41.3333 40.28 40.88 40.7333 40.3333 40.7333C39.7867 40.7333 39.3333 40.28 39.3333 39.7333V32.1333C39.3333 25.8533 34.2267 20.7333 27.9333 20.7333C24.8533 20.7333 22 21.92 19.88 24.08C17.7467 26.2533 16.6133 29.1467 16.6667 32.24V39.8533C16.6667 40.4133 16.2267 40.8667 15.6667 40.8667Z" fill="url(#paint1_linear_1_177)"/>
<path d="M19.92 32.6H19.7467C16.9467 32.6 14.6667 34.88 14.6667 37.68V40.1866C14.6667 42.9866 16.9467 45.2666 19.7467 45.2666H19.92C22.72 45.2666 25 42.9866 25 40.1866V37.68C25 34.88 22.72 32.6 19.92 32.6Z" fill="url(#paint2_linear_1_177)"/>
<path d="M36.2533 32.6H36.08C33.28 32.6 31 34.88 31 37.68V40.1866C31 42.9866 33.28 45.2666 36.08 45.2666H36.2533C39.0533 45.2666 41.3333 42.9866 41.3333 40.1866V37.68C41.3333 34.88 39.0533 32.6 36.2533 32.6Z" fill="url(#paint3_linear_1_177)"/>
<defs>
<linearGradient id="paint0_linear_1_177" x1="22.2933" y1="28.1459" x2="33.7067" y2="28.1459" gradientUnits="userSpaceOnUse">
<stop stop-color="#0038FF"/>
<stop offset="1" stop-color="#1DADFF"/>
</linearGradient>
<linearGradient id="paint1_linear_1_177" x1="14.6643" y1="29.8" x2="41.3333" y2="29.8" gradientUnits="userSpaceOnUse">
<stop stop-color="#0038FF"/>
<stop offset="1" stop-color="#1DADFF"/>
</linearGradient>
<linearGradient id="paint2_linear_1_177" x1="14.6667" y1="38.9333" x2="25" y2="38.9333" gradientUnits="userSpaceOnUse">
<stop stop-color="#0038FF"/>
<stop offset="1" stop-color="#1DADFF"/>
</linearGradient>
<linearGradient id="paint3_linear_1_177" x1="31" y1="38.9333" x2="41.3333" y2="38.9333" gradientUnits="userSpaceOnUse">
<stop stop-color="#0038FF"/>
<stop offset="1" stop-color="#1DADFF"/>
</linearGradient>
</defs>
</svg>
