<svg width="40" height="40" viewBox="0 0 40 40" fill="none" xmlns="http://www.w3.org/2000/svg">
<circle cx="20" cy="20" r="20" fill="#ECFDDD"/>
<path d="M16.11 19.85C13.29 20.05 13.3 24.15 16.11 24.35H22.78C23.59 24.36 24.37 24.05 24.97 23.51C26.95 21.78 25.89 18.31 23.29 17.98C22.36 12.34 14.21 14.48 16.14 19.85" fill="#292D32"/>
<path d="M17 30.75C12.73 30.75 9.25 27.27 9.25 23C9.25 22.59 9.59 22.25 10 22.25C10.41 22.25 10.75 22.59 10.75 23C10.75 25.96 12.81 28.44 15.58 29.09L15.31 28.64C15.1 28.28 15.21 27.82 15.57 27.61C15.92 27.4 16.39 27.51 16.6 27.87L17.65 29.62C17.79 29.85 17.79 30.14 17.66 30.37C17.52 30.6 17.27 30.75 17 30.75Z" fill="#292D32"/>
<path d="M30.0001 17.75C29.5901 17.75 29.2501 17.41 29.2501 17C29.2501 14.04 27.1901 11.56 24.4201 10.91L24.6901 11.36C24.9001 11.72 24.7901 12.18 24.4301 12.39C24.0801 12.6 23.6101 12.49 23.4001 12.13L22.3501 10.38C22.2101 10.15 22.2101 9.86 22.3401 9.63C22.4801 9.4 22.7301 9.25 23.0001 9.25C27.2701 9.25 30.7501 12.73 30.7501 17C30.7501 17.41 30.4101 17.75 30.0001 17.75Z" fill="#292D32"/>
</svg>
