<svg width="40" height="40" viewBox="0 0 40 40" fill="none" xmlns="http://www.w3.org/2000/svg">
<circle cx="20" cy="20" r="20" fill="#EBF5FE"/>
<path d="M29.8333 11.9381C28.5233 15.2081 25.5333 19.4781 22.6833 22.2681C22.2733 19.6881 20.2133 17.6681 17.6133 17.3081C20.4133 14.4481 24.7133 11.4181 27.9933 10.0981C28.5733 9.87814 29.1533 10.0481 29.5133 10.4081C29.8933 10.7881 30.0733 11.3581 29.8333 11.9381Z" fill="#292D32"/>
<path d="M21.8036 23.089C21.6036 23.259 21.4036 23.429 21.2036 23.589L19.4136 25.019C19.4136 24.989 19.4036 24.949 19.4036 24.909C19.2636 23.839 18.7636 22.849 17.9536 22.039C17.1336 21.219 16.1136 20.719 14.9936 20.579C14.9636 20.579 14.9236 20.569 14.8936 20.569L16.3436 18.739C16.4836 18.559 16.6336 18.389 16.7936 18.209L17.4736 18.299C19.6236 18.599 21.3536 20.289 21.6936 22.429L21.8036 23.089Z" fill="#292D32"/>
<path d="M18.4532 25.6188C18.4532 26.7188 18.0332 27.7688 17.2332 28.5588C16.6232 29.1788 15.8032 29.5988 14.8032 29.7188L12.3532 29.9888C11.0132 30.1388 9.8632 28.9888 10.0132 27.6388L10.2832 25.1788C10.5232 22.9888 12.3532 21.5888 14.2932 21.5488C14.4832 21.5388 14.6932 21.5488 14.8932 21.5688C15.7432 21.6788 16.5632 22.0688 17.2532 22.7488C17.9232 23.4188 18.3032 24.2088 18.4132 25.0388C18.4332 25.2388 18.4532 25.4288 18.4532 25.6188Z" fill="#292D32"/>
</svg>
