<svg width="317" height="83" viewBox="0 0 317 83" fill="none" xmlns="http://www.w3.org/2000/svg">
<mask id="mask0_1_277" style="mask-type:luminance" maskUnits="userSpaceOnUse" x="68" y="19" width="249" height="44">
<path d="M281.511 32.6678C278.929 33.6085 277.185 35.1918 276.285 37.4236V33.1382H269.885V61.8509L276.285 61.9093V53.1018C276.285 48.9128 276.382 46.1143 276.577 44.7062C276.773 43.2982 277.343 42.0625 278.28 41.008C279.338 39.7956 280.787 39.0127 282.624 38.6593C284.465 38.3058 285.952 38.4431 287.085 39.0683L288.905 33.255C287.926 32.6678 286.711 32.326 285.265 32.2267C284.976 32.2063 284.695 32.1975 284.421 32.1975C283.328 32.1975 282.356 32.3553 281.511 32.6678ZM116.371 39.6846C117.642 38.5307 119.141 37.8735 120.861 37.7186C123.406 37.4849 125.442 38.0429 126.97 39.3925C128.497 40.7421 129.26 42.2203 129.26 43.824L114.227 43.8824C114.385 42.2378 115.101 40.8385 116.371 39.6846ZM111.469 36.074C108.613 38.7352 107.184 42.4919 107.184 47.347C107.184 51.6938 108.534 55.3132 111.236 58.2111C113.938 61.1089 117.578 62.5549 122.158 62.5549C125.64 62.5549 128.576 61.7136 130.966 60.031C133.352 58.3484 134.977 56.4496 135.838 54.3346L129.733 52.5147C128.088 55.6462 125.369 57.1331 121.571 56.9783C119.81 56.8994 118.302 56.3415 117.049 55.3044C115.796 54.2674 114.955 53.2099 114.525 52.1349C114.093 51.057 113.879 50.0492 113.879 49.1114L136.192 48.8777C136.388 46.0587 136.133 43.5553 135.429 41.3614C134.725 39.1705 133.688 37.409 132.318 36.0769C130.948 34.7478 129.391 33.7487 127.65 33.0827C125.906 32.4166 124.04 32.0865 122.041 32.0865C117.849 32.0807 114.326 33.4098 111.469 36.074ZM214.487 39.6846C215.76 38.5307 217.256 37.8735 218.979 37.7186C221.524 37.4849 223.56 38.0429 225.085 39.3925C226.613 40.7421 227.375 42.2203 227.375 43.824L212.342 43.8824C212.5 42.2378 213.213 40.8385 214.487 39.6846ZM209.585 36.074C206.728 38.7352 205.299 42.4919 205.299 47.347C205.299 51.6938 206.649 55.3132 209.351 58.2111C212.05 61.1089 215.693 62.5549 220.274 62.5549C223.756 62.5549 226.692 61.7136 229.081 60.031C231.468 58.3484 233.095 56.4496 233.957 54.3346L227.848 52.5147C226.204 55.6462 223.481 57.1331 219.686 56.9783C217.925 56.8994 216.418 56.3415 215.167 55.3044C213.914 54.2674 213.073 53.2099 212.643 52.1349C212.211 51.057 211.998 50.0492 211.998 49.1114L234.31 48.8777C234.506 46.0587 234.252 43.5553 233.548 41.3614C232.844 39.1705 231.807 37.409 230.437 36.0769C229.066 34.7478 227.509 33.7487 225.768 33.0827C224.027 32.4166 222.158 32.0865 220.163 32.0865C215.962 32.0807 212.442 33.4098 209.585 36.074ZM303.879 32.1946C300.943 32.5481 298.457 34.1927 296.424 37.1286V33.0184H290.082V61.9648H296.658V47.4609C296.658 44.5631 297.274 42.305 298.507 40.6808C299.74 39.0566 301.101 38.224 302.588 38.186C305.524 38.0663 307.44 38.6768 308.343 40.006C309.243 41.338 309.692 43.4501 309.692 46.348V61.9648H316.443V46.6985C316.443 42.3137 316.014 39.2026 315.152 37.3622C314.331 35.6796 312.958 34.3096 311.042 33.2521C309.602 32.4604 307.902 32.0631 305.933 32.0631C305.278 32.0631 304.595 32.107 303.879 32.1946ZM150.339 54.2148C148.616 52.4913 147.757 50.201 147.757 47.3441C147.757 44.6419 148.628 42.4131 150.369 40.6516C152.11 38.8901 154.137 38.0078 156.445 38.0078C158.793 38.0078 160.829 38.8901 162.553 40.6516C164.274 42.4131 165.135 44.6449 165.135 47.3441C165.135 50.201 164.285 52.4913 162.582 54.2148C160.879 55.9383 158.834 56.7972 156.445 56.7972C154.096 56.8001 152.06 55.9383 150.339 54.2148ZM145.405 36.4245C142.432 39.3984 140.942 43.0207 140.942 47.2886C140.942 51.5565 142.429 55.2343 145.405 58.325C148.379 61.4186 152.04 62.9639 156.386 62.9639C160.692 62.9639 164.332 61.4186 167.309 58.325C170.283 55.2343 171.769 51.5536 171.769 47.2886C171.769 43.0236 170.283 39.4013 167.309 36.4245C164.332 33.4507 160.692 31.9638 156.386 31.9638C152.042 31.9638 148.382 33.4507 145.405 36.4245ZM247.748 56.8293C246.378 56.0669 245.694 54.9597 245.694 53.5108C245.694 51.4367 246.944 50.1426 249.454 49.6343C250.941 49.3597 253.993 49.3802 258.612 49.6928C258.845 51.2585 258.437 52.7951 257.379 54.3025C256.322 55.8098 254.756 56.8176 252.682 57.3259C251.989 57.4808 251.335 57.5596 250.713 57.5596C249.611 57.5596 248.624 57.3172 247.748 56.8293ZM251.125 31.9901C248.796 32.1654 246.868 32.7058 245.341 33.6056C242.56 35.1713 240.76 37.2074 239.939 39.7109L245.694 41.8259C246.36 40.0264 247.464 38.8112 249.013 38.186C250.558 37.5609 252.311 37.4996 254.268 38.0108C255.521 38.3263 256.479 38.8842 257.145 39.6846C257.811 40.488 258.144 41.2796 258.144 42.0625C258.144 42.8454 258.066 43.5903 257.911 44.2943C255.328 43.8649 252.156 43.9613 248.399 44.5865C241.823 45.7228 238.73 49.0705 239.121 54.6267C239.396 57.25 240.608 59.3328 242.761 60.8811C244.914 62.4264 247.497 63.0428 250.511 62.7302C252.273 62.5725 253.859 62.0554 255.267 61.1732C256.675 60.291 257.753 59.324 258.495 58.2666L258.732 61.9648H265.19L265.015 42.7052C265.015 40.6691 264.378 38.7323 263.108 36.8919C261.834 35.0545 260.026 33.702 257.674 32.8402C256.027 32.2384 254.285 31.9375 252.445 31.9375C252.01 31.9404 251.569 31.958 251.125 31.9901ZM95.5575 20.0423V49.9878L75.8889 20.0423H68.2557V61.9648H75.477V30.9063L95.8497 62.0262H102.484V20.0423H95.5575ZM176.467 19.8086V61.9678H201.773V55.3921H183.571V19.8115H176.467V19.8086Z" fill="white"/>
</mask>
<g mask="url(#mask0_1_277)">
<path d="M316.446 19.8086H68.2557V63.0428H316.446V19.8086Z" fill="url(#paint0_linear_1_277)"/>
</g>
<mask id="mask1_1_277" style="mask-type:luminance" maskUnits="userSpaceOnUse" x="0" y="0" width="48" height="71">
<path d="M35.9509 0.501687L0.642395 12.689V70.5488L42.7438 56.0157C45.8518 54.9424 47.9371 52.0162 47.9371 48.7281V9.04607C47.9371 3.88413 43.7104 0 38.9121 0C37.9402 0 36.942 0.159073 35.9509 0.501687Z" fill="white"/>
</mask>
<g mask="url(#mask1_1_277)">
<path d="M-34.6311 35.2732L24.2916 -23.6477L83.2142 35.2732L24.2916 94.1959L-34.6311 35.2732Z" fill="url(#paint1_linear_1_277)"/>
</g>
<path d="M0.644165 70.5493V71.0895L29.0584 82.2402C33.6313 84.0354 38.5765 80.6635 38.5765 75.7497V57.4548L0.644165 70.5493Z" fill="url(#paint2_linear_1_277)" fill-opacity="0.3"/>
<mask id="mask2_1_277" style="mask-type:luminance" maskUnits="userSpaceOnUse" x="0" y="57" width="39" height="26">
<path d="M0.644165 70.5493V71.0895L29.0584 82.2402C33.6313 84.0354 38.5765 80.6635 38.5765 75.7497V57.4548L0.644165 70.5493Z" fill="white"/>
</mask>
<g mask="url(#mask2_1_277)">
<path d="M0.743762 55.512L39.9381 57.5239L38.4768 85.9767L-0.71759 83.9629L0.743762 55.512Z" fill="url(#paint3_linear_1_277)" fill-opacity="0.3"/>
</g>
<mask id="mask3_1_277" style="mask-type:luminance" maskUnits="userSpaceOnUse" x="0" y="12" width="39" height="59">
<path d="M0.644165 70.5485L38.5765 57.454V50.6279C38.5765 36.7573 30.0828 24.2991 17.1701 19.2315L0.644165 12.7463V70.5485Z" fill="white"/>
</mask>
<g mask="url(#mask3_1_277)">
<path d="M3.93919 2.0647L54.8576 17.7708L35.2814 81.2331L-15.637 65.527L3.93919 2.0647Z" fill="url(#paint4_linear_1_277)" fill-opacity="0.98"/>
</g>
<defs>
<linearGradient id="paint0_linear_1_277" x1="68.2557" y1="41.4257" x2="316.446" y2="41.4257" gradientUnits="userSpaceOnUse">
<stop stop-color="white"/>
<stop offset="1" stop-color="white" stop-opacity="0.94"/>
</linearGradient>
<linearGradient id="paint1_linear_1_277" x1="24.2916" y1="-23.6477" x2="24.2916" y2="94.1959" gradientUnits="userSpaceOnUse">
<stop stop-color="white"/>
<stop offset="0.0001" stop-color="white" stop-opacity="0.59"/>
</linearGradient>
<linearGradient id="paint2_linear_1_277" x1="0.644165" y1="70.0919" x2="38.5765" y2="70.0919" gradientUnits="userSpaceOnUse">
<stop stop-color="white"/>
<stop offset="1" stop-color="white" stop-opacity="0.64"/>
</linearGradient>
<linearGradient id="paint3_linear_1_277" x1="-0.71759" y1="70.7443" x2="39.9381" y2="70.7443" gradientUnits="userSpaceOnUse">
<stop stop-color="white"/>
<stop offset="1" stop-color="white" stop-opacity="0.64"/>
</linearGradient>
<linearGradient id="paint4_linear_1_277" x1="19.6103" y1="2.0647" x2="19.6103" y2="81.2331" gradientUnits="userSpaceOnUse">
<stop stop-color="white"/>
<stop offset="1" stop-color="white"/>
</linearGradient>
</defs>
</svg>
