<svg width="142" height="37" viewBox="0 0 142 37" fill="none" xmlns="http://www.w3.org/2000/svg">
<mask id="mask0_2_73" style="mask-type:luminance" maskUnits="userSpaceOnUse" x="30" y="8" width="112" height="21">
<path d="M125.618 14.6105C124.463 15.0312 123.683 15.7394 123.28 16.7375V14.8209H120.418V27.6626L123.28 27.6887V23.7496C123.28 21.876 123.323 20.6244 123.411 19.9947C123.498 19.3649 123.753 18.8123 124.173 18.3406C124.646 17.7984 125.294 17.4483 126.115 17.2902C126.938 17.1321 127.603 17.1935 128.11 17.4731L128.924 14.8731C128.487 14.6105 127.943 14.4577 127.296 14.4132C127.167 14.4041 127.042 14.4002 126.919 14.4002C126.43 14.4002 125.995 14.4707 125.618 14.6105ZM51.7593 17.7488C52.3277 17.2327 52.9979 16.9387 53.7674 16.8695C54.9054 16.765 55.816 17.0145 56.4993 17.6181C57.1826 18.2217 57.5236 18.8828 57.5236 19.6001L50.8004 19.6262C50.8709 18.8907 51.191 18.2648 51.7593 17.7488ZM49.567 16.1339C48.2892 17.3242 47.6504 19.0043 47.6504 21.1757C47.6504 23.1198 48.254 24.7386 49.4625 26.0346C50.671 27.3307 52.2989 27.9774 54.3475 27.9774C55.9049 27.9774 57.2179 27.6012 58.2866 26.8486C59.3541 26.0961 60.0805 25.2468 60.4659 24.3009L57.7353 23.487C56.9997 24.8875 55.7834 25.5525 54.0849 25.4833C53.2971 25.448 52.6229 25.1985 52.0624 24.7347C51.5019 24.2709 51.1257 23.7979 50.9336 23.3171C50.7403 22.835 50.6449 22.3843 50.6449 21.9649L60.624 21.8603C60.7115 20.5996 60.5979 19.4799 60.283 18.4987C59.9681 17.5188 59.5043 16.731 58.8916 16.1352C58.2788 15.5408 57.5824 15.0939 56.8038 14.7961C56.0238 14.4982 55.1889 14.3505 54.2953 14.3505C52.4204 14.3479 50.8448 14.9424 49.567 16.1339ZM95.641 17.7488C96.2107 17.2327 96.8796 16.9387 97.6505 16.8695C98.7884 16.765 99.6991 17.0145 100.381 17.6181C101.064 18.2217 101.405 18.8828 101.405 19.6001L94.6821 19.6262C94.7526 18.8907 95.0714 18.2648 95.641 17.7488ZM93.4487 16.1339C92.171 17.3242 91.5321 19.0043 91.5321 21.1757C91.5321 23.1198 92.1357 24.7386 93.3442 26.0346C94.5514 27.3307 96.1806 27.9774 98.2292 27.9774C99.7866 27.9774 101.1 27.6012 102.168 26.8486C103.236 26.0961 103.964 25.2468 104.349 24.3009L101.617 23.487C100.881 24.8875 99.6638 25.5525 97.9666 25.4833C97.1788 25.448 96.5046 25.1985 95.9455 24.7347C95.385 24.2709 95.0087 23.7979 94.8166 23.3171C94.6233 22.835 94.5279 22.3843 94.5279 21.9649L104.507 21.8603C104.595 20.5996 104.481 19.4799 104.166 18.4987C103.851 17.5188 103.387 16.731 102.775 16.1352C102.162 15.5408 101.465 15.0939 100.687 14.7961C99.9081 14.4982 99.0719 14.3505 98.1796 14.3505C96.3008 14.3479 94.7265 14.9424 93.4487 16.1339ZM135.622 14.3989C134.308 14.557 133.197 15.2925 132.287 16.6056V14.7673H129.451V27.7135H132.392V21.2267C132.392 19.9306 132.668 18.9207 133.219 18.1943C133.77 17.4679 134.379 17.0955 135.044 17.0785C136.357 17.025 137.214 17.298 137.618 17.8925C138.02 18.4882 138.221 19.4329 138.221 20.7289V27.7135H141.241V20.8857C141.241 18.9246 141.049 17.5332 140.663 16.7101C140.296 15.9575 139.682 15.3448 138.825 14.8718C138.181 14.5178 137.421 14.3401 136.54 14.3401C136.247 14.3401 135.942 14.3597 135.622 14.3989ZM66.9514 24.2473C66.1806 23.4765 65.7965 22.4522 65.7965 21.1744C65.7965 19.9659 66.1858 18.969 66.9645 18.1812C67.7432 17.3934 68.6499 16.9988 69.682 16.9988C70.7325 16.9988 71.6431 17.3934 72.4139 18.1812C73.1835 18.969 73.5689 19.9672 73.5689 21.1744C73.5689 22.4522 73.1887 23.4765 72.427 24.2473C71.6653 25.0182 70.7507 25.4023 69.682 25.4023C68.6316 25.4036 67.721 25.0182 66.9514 24.2473ZM64.7447 16.2907C63.4147 17.6207 62.7484 19.2408 62.7484 21.1496C62.7484 23.0584 63.4134 24.7033 64.7447 26.0856C66.0747 27.4692 67.7118 28.1603 69.6559 28.1603C71.5817 28.1603 73.2096 27.4692 74.5409 26.0856C75.871 24.7033 76.536 23.0571 76.536 21.1496C76.536 19.2421 75.871 17.622 74.5409 16.2907C73.2096 14.9607 71.5817 14.2957 69.6559 14.2957C67.7131 14.2957 66.0761 14.9607 64.7447 16.2907ZM110.517 25.4167C109.904 25.0757 109.598 24.5805 109.598 23.9325C109.598 23.0049 110.158 22.4261 111.28 22.1987C111.945 22.0759 113.31 22.0851 115.376 22.2249C115.48 22.9252 115.297 23.6124 114.825 24.2865C114.352 24.9607 113.651 25.4114 112.724 25.6388C112.414 25.708 112.121 25.7433 111.843 25.7433C111.351 25.7433 110.909 25.6349 110.517 25.4167ZM112.027 14.3074C110.986 14.3858 110.124 14.6275 109.44 15.0299C108.197 15.7302 107.392 16.6409 107.025 17.7605L109.598 18.7064C109.896 17.9016 110.39 17.3581 111.083 17.0785C111.774 16.7989 112.558 16.7715 113.433 17.0001C113.994 17.1412 114.422 17.3908 114.72 17.7488C115.018 18.1081 115.167 18.4621 115.167 18.8123C115.167 19.1624 115.132 19.4956 115.062 19.8104C113.907 19.6184 112.488 19.6615 110.808 19.9411C107.867 20.4493 106.484 21.9466 106.659 24.4316C106.782 25.6048 107.324 26.5363 108.287 27.2288C109.25 27.9199 110.405 28.1956 111.753 28.0558C112.541 27.9853 113.25 27.754 113.88 27.3594C114.51 26.9649 114.992 26.5324 115.324 26.0595L115.429 27.7135H118.318L118.24 19.0997C118.24 18.1891 117.955 17.3228 117.387 16.4997C116.817 15.678 116.008 15.073 114.956 14.6876C114.22 14.4185 113.441 14.2839 112.618 14.2839C112.423 14.2852 112.226 14.293 112.027 14.3074ZM42.4505 8.9638V22.3568L33.6537 8.9638H30.2398V27.7135H33.4695V13.8227L42.5811 27.7409H45.5482V8.9638H42.4505ZM78.6368 8.85928V27.7148H89.9551V24.7739H81.8143V8.86058H78.6368V8.85928Z" fill="white"/>
</mask>
<g mask="url(#mask0_2_73)">
<path d="M141.242 8.85928H30.2398V28.1956H141.242V8.85928Z" fill="url(#paint0_linear_2_73)"/>
</g>
<mask id="mask1_2_73" style="mask-type:luminance" maskUnits="userSpaceOnUse" x="0" y="0" width="22" height="32">
<path d="M15.7916 0.224378L0 5.67509V31.5527L18.8297 25.0528C20.2197 24.5728 21.1524 23.2641 21.1524 21.7935V4.04582C21.1524 1.73716 19.262 0 17.116 0C16.6813 0 16.2349 0.0711447 15.7916 0.224378Z" fill="white"/>
</mask>
<g mask="url(#mask1_2_73)">
<path d="M-15.776 15.7759L10.577 -10.5762L36.9299 15.7759L10.577 42.1289L-15.776 15.7759Z" fill="url(#paint1_linear_2_73)"/>
</g>
<path d="M0.000778198 31.5527V31.7943L12.709 36.7814C14.7541 37.5843 16.9659 36.0762 16.9659 33.8786V25.6962L0.000778198 31.5527Z" fill="url(#paint2_linear_2_73)"/>
<mask id="mask2_2_73" style="mask-type:luminance" maskUnits="userSpaceOnUse" x="0" y="25" width="17" height="12">
<path d="M0.000778198 31.5527V31.7943L12.709 36.7814C14.7541 37.5843 16.9659 36.0762 16.9659 33.8786V25.6962L0.000778198 31.5527Z" fill="white"/>
</mask>
<g mask="url(#mask2_2_73)">
<path d="M0.0453234 24.8277L17.5749 25.7275L16.9213 38.4529L-0.608261 37.5522L0.0453234 24.8277Z" fill="url(#paint3_linear_2_73)"/>
</g>
<mask id="mask3_2_73" style="mask-type:luminance" maskUnits="userSpaceOnUse" x="0" y="5" width="17" height="27">
<path d="M0.000778198 31.5527L16.9659 25.6962V22.6433C16.9659 16.4397 13.1671 10.8678 7.39193 8.60136L0.000778198 5.70088V31.5527Z" fill="white"/>
</mask>
<g mask="url(#mask3_2_73)">
<path d="M1.47446 0.923309L24.2475 7.94779L15.4922 36.3311L-7.28093 29.3066L1.47446 0.923309Z" fill="url(#paint4_linear_2_73)"/>
</g>
<path d="M0.000778198 31.5527L16.9659 25.6962V23.3852C16.9659 16.7337 12.8935 10.7607 6.7016 8.33087L0.000778198 5.70168V31.5527Z" fill="#2854E5"/>
<mask id="mask4_2_73" style="mask-type:luminance" maskUnits="userSpaceOnUse" x="0" y="5" width="17" height="27">
<path d="M0.000778198 31.5527L16.9659 25.6962V23.3852C16.9659 16.7337 12.8935 10.7607 6.7016 8.33087L0.000778198 5.70168V31.5527Z" fill="white"/>
</mask>
<g mask="url(#mask4_2_73)">
<path d="M-12.9247 18.6272L8.48331 -2.78088L29.8914 18.6272L8.48331 40.0352L-12.9247 18.6272Z" fill="url(#paint5_linear_2_73)"/>
</g>
<defs>
<linearGradient id="paint0_linear_2_73" x1="30.2372" y1="18.523" x2="141.241" y2="18.523" gradientUnits="userSpaceOnUse">
<stop stop-color="#4794FA"/>
<stop offset="1" stop-color="#2D8DFD"/>
</linearGradient>
<linearGradient id="paint1_linear_2_73" x1="-2.60404" y1="28.9495" x2="22.5631" y2="3.78237" gradientUnits="userSpaceOnUse">
<stop stop-color="#4DD7E2"/>
<stop offset="1" stop-color="#7CECD4"/>
</linearGradient>
<linearGradient id="paint2_linear_2_73" x1="0.000715654" y1="31.348" x2="16.966" y2="31.348" gradientUnits="userSpaceOnUse">
<stop stop-color="#008FF9"/>
<stop offset="1" stop-color="#0051BF"/>
</linearGradient>
<linearGradient id="paint3_linear_2_73" x1="-3.34677" y1="23.5548" x2="21.7422" y2="40.702" gradientUnits="userSpaceOnUse">
<stop stop-color="#008FF9"/>
<stop offset="1" stop-color="#0051BF"/>
</linearGradient>
<linearGradient id="paint4_linear_2_73" x1="-2.89903" y1="15.118" x2="20.2072" y2="22.2456" gradientUnits="userSpaceOnUse">
<stop stop-color="#5498F9"/>
<stop offset="1" stop-color="#2D8DFD"/>
</linearGradient>
<linearGradient id="paint5_linear_2_73" x1="-12.9246" y1="18.6273" x2="29.8913" y2="18.6273" gradientUnits="userSpaceOnUse">
<stop offset="0.0566" stop-color="#008FF9"/>
<stop offset="0.6929" stop-color="#0051BF"/>
</linearGradient>
</defs>
</svg>
