<svg width="20" height="21" viewBox="0 0 20 21" fill="none" xmlns="http://www.w3.org/2000/svg">
<path d="M16.8608 9.65601C16.8608 15.0348 11.3516 18.3486 10.2068 18.9798C10.1433 19.0148 10.0721 19.0331 9.99964 19.0331C9.92721 19.0331 9.85596 19.0148 9.79254 18.9798C8.64679 18.3486 3.13931 15.0348 3.13931 9.65601C3.13931 5.36804 5.7121 2.36646 10.0001 2.36646C14.288 2.36646 16.8608 5.36804 16.8608 9.65601Z" stroke="white" stroke-width="1.4" stroke-linecap="round" stroke-linejoin="round"/>
<path d="M6.56972 9.22726C6.56972 10.137 6.93113 11.0096 7.57445 11.6529C8.21777 12.2962 9.0903 12.6576 10.0001 12.6576C10.9099 12.6576 11.7824 12.2962 12.4257 11.6529C13.0691 11.0096 13.4305 10.137 13.4305 9.22726C13.4305 8.31746 13.0691 7.44493 12.4257 6.80161C11.7824 6.15829 10.9099 5.79688 10.0001 5.79688C9.0903 5.79688 8.21777 6.15829 7.57445 6.80161C6.93113 7.44493 6.56972 8.31746 6.56972 9.22726V9.22726Z" stroke="white" stroke-width="1.4" stroke-linecap="round" stroke-linejoin="round"/>
</svg>
