<svg width="1203" height="269" viewBox="0 0 1203 269" fill="none" xmlns="http://www.w3.org/2000/svg">
<rect width="1203" height="269" rx="16" fill="url(#paint0_linear_1_191)"/>
<mask id="mask0_1_191" style="mask-type:alpha" maskUnits="userSpaceOnUse" x="0" y="0" width="1203" height="269">
<rect width="1203" height="269" rx="16" fill="url(#paint1_linear_1_191)"/>
</mask>
<g mask="url(#mask0_1_191)">
<path d="M429.166 156.618C434.415 134.546 415.169 115.3 393.098 120.549C382.735 123.106 374.256 131.585 371.699 141.948C366.45 164.019 385.696 183.265 407.767 178.016C418.265 175.459 426.744 166.981 429.166 156.618Z" fill="white" fill-opacity="0.15"/>
<path opacity="0.4" d="M320.019 245.846C317.597 245.846 315.04 244.904 313.155 243.155C287.046 218.93 272.108 184.745 272.108 149.215C272.108 78.4242 329.709 20.8229 400.5 20.8229C471.291 20.8229 528.892 78.4242 528.892 149.215C528.892 185.014 514.492 218.122 488.383 242.751C484.345 246.519 477.885 246.385 474.117 242.347C470.349 238.31 470.483 231.85 474.521 228.082C496.593 207.356 508.705 179.496 508.705 149.35C508.705 89.7294 460.12 41.1451 400.5 41.1451C340.88 41.1451 292.295 89.7294 292.295 149.35C292.295 179.766 304.542 207.759 326.883 228.485C330.92 232.253 331.19 238.713 327.421 242.751C325.403 244.769 322.711 245.846 320.019 245.846Z" fill="white" fill-opacity="0.15"/>
<path opacity="0.4" d="M454.333 209.912C451.911 209.912 449.354 208.97 447.47 207.221C443.432 203.452 443.163 196.992 447.066 192.955C458.236 181.111 464.427 165.5 464.427 149.35C464.427 114.089 435.761 85.5575 400.635 85.5575C365.508 85.5575 336.842 114.224 336.842 149.35C336.842 165.634 343.033 181.111 354.203 192.955C357.972 196.992 357.837 203.452 353.8 207.221C349.762 211.123 343.302 210.855 339.534 206.817C324.864 191.206 316.655 170.749 316.655 149.35C316.655 103.053 354.338 65.37 400.635 65.37C446.931 65.37 484.615 103.053 484.615 149.35C484.615 170.749 476.54 191.206 461.735 206.817C459.717 208.836 457.025 209.912 454.333 209.912Z" fill="white" fill-opacity="0.15"/>
<path d="M377.621 228.215L358.241 252.306C342.898 271.552 356.491 299.949 381.12 299.949H419.745C444.374 299.949 458.102 271.417 442.625 252.306L423.245 228.215C411.671 213.546 389.33 213.546 377.621 228.215Z" fill="white" fill-opacity="0.15"/>
</g>
<defs>
<linearGradient id="paint0_linear_1_191" x1="-7.19691e-07" y1="35.944" x2="1209.71" y2="191.185" gradientUnits="userSpaceOnUse">
<stop stop-color="#0038FF"/>
<stop offset="1" stop-color="#1DADFF"/>
</linearGradient>
<linearGradient id="paint1_linear_1_191" x1="-7.19691e-07" y1="35.944" x2="1209.71" y2="191.185" gradientUnits="userSpaceOnUse">
<stop stop-color="#0038FF"/>
<stop offset="1" stop-color="#1DADFF"/>
</linearGradient>
</defs>
</svg>
